<?xml version="1.0" encoding="UTF-8"?>
<svg width="202" height="54" viewBox="0 0 202 54" fill="none" xmlns="http://www.w3.org/2000/svg">
    <path class="b" d="M75.5,15.73v38.06h-14.4V20.79c0-4.37-1.83-6.11-4.63-6.11-2.44,0-5.24,1.57-11.52,6.46v32.66h-14.4V20.8c0-4.37-1.83-6.11-4.63-6.11-2.35,0-5.24,1.57-11.52,6.54v32.56H0V1.41h13.53v6.54C20.69,2.45,26.28,0,31.77,0c4.63,0,9.77,2,12.13,7.86C51.23,2.27,56.82,0,62.31,0c6.47,0,13.18,3.93,13.18,15.72M122.64,1.41h13.71v52.38h-13.71v-6.89c-4.71,5.67-10.83,8.3-17.9,8.3-14.32,0-26.19-12.31-26.19-27.59S90.42.02,104.74.02c7.08,0,13.18,2.62,17.9,8.3V1.42h0ZM122.38,27.6c0-8.55-6.9-15.45-15.45-15.45s-15.45,6.9-15.45,15.45,6.89,15.45,15.45,15.45,15.45-6.9,15.45-15.45ZM106.92,15.64c-6.55,0-11.87,5.32-11.87,11.96s5.32,11.96,11.87,11.96,11.87-5.32,11.87-11.96-5.32-11.96-11.87-11.96ZM201.56,1.41h-17.2c-4.28,6.64-8.91,12.23-14.06,17.72-5.24-5.5-9.86-11.08-14.06-17.72h-17.38c5.93,9.25,12.66,17.55,20.52,25.85-7.86,8.64-14.58,17.63-20.52,26.54h17.38c4.1-6.64,8.73-12.66,14.06-18.33,5.24,5.68,9.61,11.7,13.71,18.33h17.55c-6.03-9.17-12.57-17.9-20.43-26.54,7.77-8.3,14.4-16.85,20.43-25.85Z" fill="#5F2EEA"/>
</svg>